<?xml version="1.0" encoding="UTF-8" standalone="yes"?><svg xmlns="http://www.w3.org/2000/svg" xmlns:xlink="http://www.w3.org/1999/xlink" height="331pt" style="width:952px;height:331px;" version="1.1" viewBox="0 0 952 331" width="952pt"><defs/><g><rect fill="#A6A6A6" height="217.1738" style="stroke: #32364A; stroke-width: 1.0;" width="10" x="403" y="65.4883"/><rect fill="#A6A6A6" height="56.6211" style="stroke: #32364A; stroke-width: 1.0;" width="10" x="876" y="212.041"/><line style="stroke: #32364A; stroke-width: 1.0; stroke-dasharray: 5.0,5.0;" x1="59" x2="59" y1="34.4883" y2="300.6621"/><line style="stroke: #32364A; stroke-width: 1.0; stroke-dasharray: 5.0,5.0;" x1="407.5" x2="407.5" y1="34.4883" y2="300.6621"/><line style="stroke: #32364A; stroke-width: 1.0; stroke-dasharray: 5.0,5.0;" x1="728.5" x2="728.5" y1="34.4883" y2="300.6621"/><line style="stroke: #32364A; stroke-width: 1.0; stroke-dasharray: 5.0,5.0;" x1="880.5" x2="880.5" y1="34.4883" y2="300.6621"/><rect fill="#32364A" height="30.4883" style="stroke: #32364A; stroke-width: 1.5;" width="102" x="8" y="3"/><text fill="#FFFFFF" font-family="sans-serif" font-size="14" lengthAdjust="spacingAndGlyphs" textLength="88" x="15" y="23.5352">CBPeripheral</text><rect fill="#32364A" height="30.4883" style="stroke: #32364A; stroke-width: 1.5;" width="102" x="8" y="299.6621"/><text fill="#FFFFFF" font-family="sans-serif" font-size="14" lengthAdjust="spacingAndGlyphs" textLength="88" x="15" y="320.1973">CBPeripheral</text><rect fill="#32364A" height="30.4883" style="stroke: #32364A; stroke-width: 1.5;" width="167" x="324.5" y="3"/><text fill="#FFFFFF" font-family="sans-serif" font-size="14" lengthAdjust="spacingAndGlyphs" textLength="153" x="331.5" y="23.5352">BKBlukiiDeviceContext</text><rect fill="#32364A" height="30.4883" style="stroke: #32364A; stroke-width: 1.5;" width="167" x="324.5" y="299.6621"/><text fill="#FFFFFF" font-family="sans-serif" font-size="14" lengthAdjust="spacingAndGlyphs" textLength="153" x="331.5" y="320.1973">BKBlukiiDeviceContext</text><rect fill="#32364A" height="30.4883" style="stroke: #32364A; stroke-width: 1.5;" width="143" x="657.5" y="3"/><text fill="#FFFFFF" font-family="sans-serif" font-size="14" lengthAdjust="spacingAndGlyphs" textLength="129" x="664.5" y="23.5352">BKProfileHandler A</text><rect fill="#32364A" height="30.4883" style="stroke: #32364A; stroke-width: 1.5;" width="143" x="657.5" y="299.6621"/><text fill="#FFFFFF" font-family="sans-serif" font-size="14" lengthAdjust="spacingAndGlyphs" textLength="129" x="664.5" y="320.1973">BKProfileHandler A</text><rect fill="#32364A" height="30.4883" style="stroke: #32364A; stroke-width: 1.5;" width="141" x="810.5" y="3"/><text fill="#FFFFFF" font-family="sans-serif" font-size="14" lengthAdjust="spacingAndGlyphs" textLength="127" x="817.5" y="23.5352">BKProfileHandler B</text><rect fill="#32364A" height="30.4883" style="stroke: #32364A; stroke-width: 1.5;" width="141" x="810.5" y="299.6621"/><text fill="#FFFFFF" font-family="sans-serif" font-size="14" lengthAdjust="spacingAndGlyphs" textLength="127" x="817.5" y="320.1973">BKProfileHandler B</text><rect fill="#A6A6A6" height="217.1738" style="stroke: #32364A; stroke-width: 1.0;" width="10" x="403" y="65.4883"/><rect fill="#A6A6A6" height="56.6211" style="stroke: #32364A; stroke-width: 1.0;" width="10" x="876" y="212.041"/><polygon fill="#FC5F1A" points="391,61.4883,401,65.4883,391,69.4883,395,65.4883" style="stroke: #FC5F1A; stroke-width: 1.0;"/><line style="stroke: #FC5F1A; stroke-width: 1.0;" x1="59" x2="397" y1="65.4883" y2="65.4883"/><text fill="#000000" font-family="sans-serif" font-size="13" lengthAdjust="spacingAndGlyphs" textLength="325" x="66" y="61.0566">peripheral(_:didUpdateValueForCharacteristic:error:)</text><polygon fill="#FC5F1A" points="717,90.7988,727,94.7988,717,98.7988,721,94.7988" style="stroke: #FC5F1A; stroke-width: 1.0;"/><line style="stroke: #FC5F1A; stroke-width: 1.0;" x1="413" x2="723" y1="94.7988" y2="94.7988"/><text fill="#000000" font-family="sans-serif" font-size="13" lengthAdjust="spacingAndGlyphs" textLength="292" x="420" y="90.3672">canHandleDidUpdateValueForCharacteristic(_:)</text><polygon fill="#FC5F1A" points="424,120.1094,414,124.1094,424,128.1094,420,124.1094" style="stroke: #FC5F1A; stroke-width: 1.0;"/><line style="stroke: #FC5F1A; stroke-width: 1.0; stroke-dasharray: 2.0,2.0;" x1="418" x2="728" y1="124.1094" y2="124.1094"/><text fill="#000000" font-family="sans-serif" font-size="13" lengthAdjust="spacingAndGlyphs" textLength="30" x="430" y="119.6777">false</text><polygon fill="#FC5F1A" points="869,149.4199,879,153.4199,869,157.4199,873,153.4199" style="stroke: #FC5F1A; stroke-width: 1.0;"/><line style="stroke: #FC5F1A; stroke-width: 1.0;" x1="413" x2="875" y1="153.4199" y2="153.4199"/><text fill="#000000" font-family="sans-serif" font-size="13" lengthAdjust="spacingAndGlyphs" textLength="292" x="420" y="148.9883">canHandleDidUpdateValueForCharacteristic(_:)</text><polygon fill="#FC5F1A" points="424,178.7305,414,182.7305,424,186.7305,420,182.7305" style="stroke: #FC5F1A; stroke-width: 1.0;"/><line style="stroke: #FC5F1A; stroke-width: 1.0; stroke-dasharray: 2.0,2.0;" x1="418" x2="880" y1="182.7305" y2="182.7305"/><text fill="#000000" font-family="sans-serif" font-size="13" lengthAdjust="spacingAndGlyphs" textLength="25" x="430" y="178.2988">true</text><polygon fill="#FC5F1A" points="864,208.041,874,212.041,864,216.041,868,212.041" style="stroke: #FC5F1A; stroke-width: 1.0;"/><line style="stroke: #FC5F1A; stroke-width: 1.0;" x1="413" x2="870" y1="212.041" y2="212.041"/><text fill="#000000" font-family="sans-serif" font-size="13" lengthAdjust="spacingAndGlyphs" textLength="302" x="420" y="207.6094">handleDidUpdateValueForCharacteristic(_:error:)</text><line style="stroke: #FC5F1A; stroke-width: 1.0; stroke-dasharray: 2.0,2.0;" x1="886" x2="928" y1="241.6621" y2="241.6621"/><line style="stroke: #FC5F1A; stroke-width: 1.0; stroke-dasharray: 2.0,2.0;" x1="928" x2="928" y1="241.6621" y2="254.6621"/><line style="stroke: #FC5F1A; stroke-width: 1.0; stroke-dasharray: 2.0,2.0;" x1="887" x2="928" y1="254.6621" y2="254.6621"/><polygon fill="#FC5F1A" points="897,250.6621,887,254.6621,897,258.6621,893,254.6621" style="stroke: #FC5F1A; stroke-width: 1.0;"/><text fill="#000000" font-family="sans-serif" font-size="13" lengthAdjust="spacingAndGlyphs" textLength="57" x="893" y="236.9199">Handling</text><polygon fill="#FC5F1A" points="424,264.6621,414,268.6621,424,272.6621,420,268.6621" style="stroke: #FC5F1A; stroke-width: 1.0;"/><line style="stroke: #FC5F1A; stroke-width: 1.0; stroke-dasharray: 2.0,2.0;" x1="418" x2="880" y1="268.6621" y2="268.6621"/><polygon fill="#FC5F1A" points="70,278.6621,60,282.6621,70,286.6621,66,282.6621" style="stroke: #FC5F1A; stroke-width: 1.0;"/><line style="stroke: #FC5F1A; stroke-width: 1.0; stroke-dasharray: 2.0,2.0;" x1="64" x2="407" y1="282.6621" y2="282.6621"/></g></svg>