<?xml version="1.0" encoding="UTF-8" standalone="yes"?><svg xmlns="http://www.w3.org/2000/svg" xmlns:xlink="http://www.w3.org/1999/xlink" height="535pt" style="width:674px;height:535px;" version="1.1" viewBox="0 0 674 535" width="674pt"><defs/><g><rect fill="#A6A6A6" height="14.3105" style="stroke: #32364A; stroke-width: 1.0;" width="10" x="49" y="458.2148"/><rect fill="#A6A6A6" height="58.6211" style="stroke: #32364A; stroke-width: 1.0;" width="10" x="231" y="65.4883"/><rect fill="#A6A6A6" height="115.9316" style="stroke: #32364A; stroke-width: 1.0;" width="10" x="231" y="182.7305"/><rect fill="#A6A6A6" height="129.2422" style="stroke: #32364A; stroke-width: 1.0;" width="10" x="231" y="357.2832"/><rect fill="#A6A6A6" height="174.5527" style="stroke: #32364A; stroke-width: 1.0;" width="10" x="569.5" y="153.4199"/><rect fill="#A6A6A6" height="108.9316" style="stroke: #32364A; stroke-width: 1.0;" width="10" x="569.5" y="386.5938"/><line style="stroke: #32364A; stroke-width: 1.0; stroke-dasharray: 5.0,5.0;" x1="54" x2="54" y1="34.4883" y2="504.5254"/><line style="stroke: #32364A; stroke-width: 1.0; stroke-dasharray: 5.0,5.0;" x1="235.5" x2="235.5" y1="34.4883" y2="504.5254"/><line style="stroke: #32364A; stroke-width: 1.0; stroke-dasharray: 5.0,5.0;" x1="486" x2="486" y1="34.4883" y2="504.5254"/><line style="stroke: #32364A; stroke-width: 1.0; stroke-dasharray: 5.0,5.0;" x1="574" x2="574" y1="34.4883" y2="504.5254"/><rect fill="#32364A" height="30.4883" style="stroke: #32364A; stroke-width: 1.5;" width="92" x="8" y="3"/><text fill="#FFFFFF" font-family="sans-serif" font-size="14" lengthAdjust="spacingAndGlyphs" textLength="78" x="15" y="23.5352">Application</text><rect fill="#32364A" height="30.4883" style="stroke: #32364A; stroke-width: 1.5;" width="92" x="8" y="503.5254"/><text fill="#FFFFFF" font-family="sans-serif" font-size="14" lengthAdjust="spacingAndGlyphs" textLength="78" x="15" y="524.0605">Application</text><rect fill="#32364A" height="30.4883" style="stroke: #32364A; stroke-width: 1.5;" width="117" x="177.5" y="3"/><text fill="#FFFFFF" font-family="sans-serif" font-size="14" lengthAdjust="spacingAndGlyphs" textLength="103" x="184.5" y="23.5352">Core Bluetooth</text><rect fill="#32364A" height="30.4883" style="stroke: #32364A; stroke-width: 1.5;" width="117" x="177.5" y="503.5254"/><text fill="#FFFFFF" font-family="sans-serif" font-size="14" lengthAdjust="spacingAndGlyphs" textLength="103" x="184.5" y="524.0605">Core Bluetooth</text><rect fill="#32364A" height="30.4883" style="stroke: #32364A; stroke-width: 1.5;" width="84" x="444" y="3"/><text fill="#FFFFFF" font-family="sans-serif" font-size="14" lengthAdjust="spacingAndGlyphs" textLength="70" x="451" y="23.5352">Peripheral</text><rect fill="#32364A" height="30.4883" style="stroke: #32364A; stroke-width: 1.5;" width="84" x="444" y="503.5254"/><text fill="#FFFFFF" font-family="sans-serif" font-size="14" lengthAdjust="spacingAndGlyphs" textLength="70" x="451" y="524.0605">Peripheral</text><rect fill="#32364A" height="30.4883" style="stroke: #32364A; stroke-width: 1.5;" width="73" x="538" y="3"/><text fill="#FFFFFF" font-family="sans-serif" font-size="14" lengthAdjust="spacingAndGlyphs" textLength="59" x="545" y="23.5352">Blukii Kit</text><rect fill="#32364A" height="30.4883" style="stroke: #32364A; stroke-width: 1.5;" width="73" x="538" y="503.5254"/><text fill="#FFFFFF" font-family="sans-serif" font-size="14" lengthAdjust="spacingAndGlyphs" textLength="59" x="545" y="524.0605">Blukii Kit</text><rect fill="#A6A6A6" height="14.3105" style="stroke: #32364A; stroke-width: 1.0;" width="10" x="49" y="458.2148"/><rect fill="#A6A6A6" height="58.6211" style="stroke: #32364A; stroke-width: 1.0;" width="10" x="231" y="65.4883"/><rect fill="#A6A6A6" height="115.9316" style="stroke: #32364A; stroke-width: 1.0;" width="10" x="231" y="182.7305"/><rect fill="#A6A6A6" height="129.2422" style="stroke: #32364A; stroke-width: 1.0;" width="10" x="231" y="357.2832"/><rect fill="#A6A6A6" height="174.5527" style="stroke: #32364A; stroke-width: 1.0;" width="10" x="569.5" y="153.4199"/><rect fill="#A6A6A6" height="108.9316" style="stroke: #32364A; stroke-width: 1.0;" width="10" x="569.5" y="386.5938"/><polygon fill="#FC5F1A" points="219,61.4883,229,65.4883,219,69.4883,223,65.4883" style="stroke: #FC5F1A; stroke-width: 1.0;"/><line style="stroke: #FC5F1A; stroke-width: 1.0;" x1="54" x2="225" y1="65.4883" y2="65.4883"/><text fill="#000000" font-family="sans-serif" font-size="13" lengthAdjust="spacingAndGlyphs" textLength="158" x="61" y="61.0566">Start scan for peripherals</text><polygon fill="#FC5F1A" points="252,90.7988,242,94.7988,252,98.7988,248,94.7988" style="stroke: #FC5F1A; stroke-width: 1.0;"/><line style="stroke: #FC5F1A; stroke-width: 1.0; stroke-dasharray: 2.0,2.0;" x1="246" x2="485" y1="94.7988" y2="94.7988"/><text fill="#000000" font-family="sans-serif" font-size="13" lengthAdjust="spacingAndGlyphs" textLength="72" x="258" y="90.3672">Advertising</text><polygon fill="#FC5F1A" points="65,120.1094,55,124.1094,65,128.1094,61,124.1094" style="stroke: #FC5F1A; stroke-width: 1.0;"/><line style="stroke: #FC5F1A; stroke-width: 1.0; stroke-dasharray: 2.0,2.0;" x1="59" x2="235" y1="124.1094" y2="124.1094"/><text fill="#000000" font-family="sans-serif" font-size="13" lengthAdjust="spacingAndGlyphs" textLength="146" x="71" y="119.6777">Did discover peripheral</text><polygon fill="#FC5F1A" points="557.5,149.4199,567.5,153.4199,557.5,157.4199,561.5,153.4199" style="stroke: #FC5F1A; stroke-width: 1.0;"/><line style="stroke: #FC5F1A; stroke-width: 1.0;" x1="54" x2="563.5" y1="153.4199" y2="153.4199"/><text fill="#000000" font-family="sans-serif" font-size="13" lengthAdjust="spacingAndGlyphs" textLength="137" x="61" y="148.9883">Load profile for blukii</text><polygon fill="#FC5F1A" points="252,178.7305,242,182.7305,252,186.7305,248,182.7305" style="stroke: #FC5F1A; stroke-width: 1.0;"/><line style="stroke: #FC5F1A; stroke-width: 1.0;" x1="246" x2="568.5" y1="182.7305" y2="182.7305"/><text fill="#000000" font-family="sans-serif" font-size="13" lengthAdjust="spacingAndGlyphs" textLength="226" x="258" y="178.2988">Discover service and characteristics</text><polygon fill="#FC5F1A" points="474,208.041,484,212.041,474,216.041,478,212.041" style="stroke: #FC5F1A; stroke-width: 1.0;"/><line style="stroke: #FC5F1A; stroke-width: 1.0;" x1="241" x2="480" y1="212.041" y2="212.041"/><text fill="#000000" font-family="sans-serif" font-size="13" lengthAdjust="spacingAndGlyphs" textLength="103" x="248" y="207.6094">Discover service</text><polygon fill="#FC5F1A" points="252,222.3516,242,226.3516,252,230.3516,248,226.3516" style="stroke: #FC5F1A; stroke-width: 1.0;"/><line style="stroke: #FC5F1A; stroke-width: 1.0; stroke-dasharray: 2.0,2.0;" x1="246" x2="485" y1="226.3516" y2="226.3516"/><polygon fill="#FC5F1A" points="474,251.3516,484,255.3516,474,259.3516,478,255.3516" style="stroke: #FC5F1A; stroke-width: 1.0;"/><line style="stroke: #FC5F1A; stroke-width: 1.0;" x1="241" x2="480" y1="255.3516" y2="255.3516"/><text fill="#000000" font-family="sans-serif" font-size="13" lengthAdjust="spacingAndGlyphs" textLength="221" x="248" y="250.9199">Discover characteristics for service</text><polygon fill="#FC5F1A" points="252,265.6621,242,269.6621,252,273.6621,248,269.6621" style="stroke: #FC5F1A; stroke-width: 1.0;"/><line style="stroke: #FC5F1A; stroke-width: 1.0; stroke-dasharray: 2.0,2.0;" x1="246" x2="485" y1="269.6621" y2="269.6621"/><polygon fill="#FC5F1A" points="557.5,294.6621,567.5,298.6621,557.5,302.6621,561.5,298.6621" style="stroke: #FC5F1A; stroke-width: 1.0;"/><line style="stroke: #FC5F1A; stroke-width: 1.0; stroke-dasharray: 2.0,2.0;" x1="236" x2="563.5" y1="298.6621" y2="298.6621"/><text fill="#000000" font-family="sans-serif" font-size="13" lengthAdjust="spacingAndGlyphs" textLength="250" x="243" y="294.2305">Did discover service and characteristics</text><polygon fill="#FC5F1A" points="65,323.9727,55,327.9727,65,331.9727,61,327.9727" style="stroke: #FC5F1A; stroke-width: 1.0;"/><line style="stroke: #FC5F1A; stroke-width: 1.0; stroke-dasharray: 2.0,2.0;" x1="59" x2="573.5" y1="327.9727" y2="327.9727"/><text fill="#000000" font-family="sans-serif" font-size="13" lengthAdjust="spacingAndGlyphs" textLength="98" x="71" y="323.541">Did load profile</text><polygon fill="#FC5F1A" points="252,353.2832,242,357.2832,252,361.2832,248,357.2832" style="stroke: #FC5F1A; stroke-width: 1.0;"/><line style="stroke: #FC5F1A; stroke-width: 1.0; stroke-dasharray: 2.0,2.0;" x1="246" x2="485" y1="357.2832" y2="357.2832"/><text fill="#000000" font-family="sans-serif" font-size="13" lengthAdjust="spacingAndGlyphs" textLength="39" x="258" y="352.8516">Notify</text><polygon fill="#FC5F1A" points="557.5,382.5938,567.5,386.5938,557.5,390.5938,561.5,386.5938" style="stroke: #FC5F1A; stroke-width: 1.0;"/><line style="stroke: #FC5F1A; stroke-width: 1.0;" x1="241" x2="563.5" y1="386.5938" y2="386.5938"/><text fill="#000000" font-family="sans-serif" font-size="13" lengthAdjust="spacingAndGlyphs" textLength="87" x="248" y="382.1621">Handle Notify</text><line style="stroke: #FC5F1A; stroke-width: 1.0; stroke-dasharray: 2.0,2.0;" x1="579.5" x2="621.5" y1="416.2148" y2="416.2148"/><line style="stroke: #FC5F1A; stroke-width: 1.0; stroke-dasharray: 2.0,2.0;" x1="621.5" x2="621.5" y1="416.2148" y2="429.2148"/><line style="stroke: #FC5F1A; stroke-width: 1.0; stroke-dasharray: 2.0,2.0;" x1="580.5" x2="621.5" y1="429.2148" y2="429.2148"/><polygon fill="#FC5F1A" points="590.5,425.2148,580.5,429.2148,590.5,433.2148,586.5,429.2148" style="stroke: #FC5F1A; stroke-width: 1.0;"/><text fill="#000000" font-family="sans-serif" font-size="13" lengthAdjust="spacingAndGlyphs" textLength="87" x="586.5" y="411.4727">Handle Notify</text><polygon fill="#FC5F1A" points="70,454.2148,60,458.2148,70,462.2148,66,458.2148" style="stroke: #FC5F1A; stroke-width: 1.0;"/><line style="stroke: #FC5F1A; stroke-width: 1.0;" x1="64" x2="568.5" y1="458.2148" y2="458.2148"/><text fill="#000000" font-family="sans-serif" font-size="13" lengthAdjust="spacingAndGlyphs" textLength="135" x="76" y="453.7832">Call on notify closure</text><polygon fill="#FC5F1A" points="557.5,468.5254,567.5,472.5254,557.5,476.5254,561.5,472.5254" style="stroke: #FC5F1A; stroke-width: 1.0;"/><line style="stroke: #FC5F1A; stroke-width: 1.0; stroke-dasharray: 2.0,2.0;" x1="54" x2="563.5" y1="472.5254" y2="472.5254"/><polygon fill="#FC5F1A" points="247,482.5254,237,486.5254,247,490.5254,243,486.5254" style="stroke: #FC5F1A; stroke-width: 1.0;"/><line style="stroke: #FC5F1A; stroke-width: 1.0; stroke-dasharray: 2.0,2.0;" x1="241" x2="568.5" y1="486.5254" y2="486.5254"/></g></svg>